<svg xmlns="http://www.w3.org/2000/svg" xmlns:xlink="http://www.w3.org/1999/xlink" width="389" zoomAndPan="magnify" viewBox="0 0 291.75 135.750003" height="181" preserveAspectRatio="xMidYMid meet" version="1.0"><defs><g/><clipPath id="b1a4d42874"><path d="M 48 17.886719 L 63 17.886719 L 63 130.179688 L 48 130.179688 Z M 48 17.886719 " clip-rule="nonzero"/></clipPath><clipPath id="91c0b9c3bb"><path d="M 0.144531 68 L 10 68 L 10 81 L 0.144531 81 Z M 0.144531 68 " clip-rule="nonzero"/></clipPath><clipPath id="ba86a3dc0c"><path d="M 228 17.886719 L 243 17.886719 L 243 130.179688 L 228 130.179688 Z M 228 17.886719 " clip-rule="nonzero"/></clipPath><clipPath id="ed53d53eca"><path d="M 282 68 L 291.355469 68 L 291.355469 81 L 282 81 Z M 282 68 " clip-rule="nonzero"/></clipPath></defs><g clip-path="url(#b1a4d42874)"><path fill="#191921" d="M 48.683594 17.980469 L 62.578125 17.980469 L 62.578125 130.28125 L 48.683594 130.28125 Z M 48.683594 17.980469 " fill-opacity="1" fill-rule="nonzero"/></g><path fill="#191921" d="M 30.816406 29.605469 L 44.714844 29.605469 L 44.714844 118.648438 L 30.816406 118.648438 Z M 30.816406 29.605469 " fill-opacity="1" fill-rule="nonzero"/><path fill="#191921" d="M 12.871094 41.085938 L 26.769531 41.085938 L 26.769531 107.160156 L 12.871094 107.160156 Z M 12.871094 41.085938 " fill-opacity="1" fill-rule="nonzero"/><g clip-path="url(#91c0b9c3bb)"><path fill="#191921" d="M 0.167969 68.027344 L 9.242188 68.027344 L 9.242188 80.222656 L 0.167969 80.222656 Z M 0.167969 68.027344 " fill-opacity="1" fill-rule="nonzero"/></g><path fill="#191921" d="M 66.550781 68.027344 L 224.792969 68.027344 L 224.792969 80.222656 L 66.550781 80.222656 Z M 66.550781 68.027344 " fill-opacity="1" fill-rule="nonzero"/><g clip-path="url(#ba86a3dc0c)"><path fill="#191921" d="M 242.746094 17.980469 L 228.847656 17.980469 L 228.847656 130.28125 L 242.746094 130.28125 Z M 242.746094 17.980469 " fill-opacity="1" fill-rule="nonzero"/></g><path fill="#191921" d="M 260.609375 29.605469 L 246.714844 29.605469 L 246.714844 118.648438 L 260.609375 118.648438 Z M 260.609375 29.605469 " fill-opacity="1" fill-rule="nonzero"/><path fill="#191921" d="M 278.476562 41.085938 L 264.582031 41.085938 L 264.582031 107.160156 L 278.476562 107.160156 Z M 278.476562 41.085938 " fill-opacity="1" fill-rule="nonzero"/><g clip-path="url(#ed53d53eca)"><path fill="#191921" d="M 291.261719 68.027344 L 282.183594 68.027344 L 282.183594 80.222656 L 291.261719 80.222656 Z M 291.261719 68.027344 " fill-opacity="1" fill-rule="nonzero"/></g><g fill="#191921" fill-opacity="1"><g transform="translate(101.226811, 49.148619)"><g><path d="M 17.78125 -16.171875 C 17.351562 -16.953125 16.738281 -17.550781 15.9375 -17.96875 C 15.144531 -18.382812 14.210938 -18.59375 13.140625 -18.59375 C 11.273438 -18.59375 9.78125 -17.976562 8.65625 -16.75 C 7.53125 -15.53125 6.96875 -13.898438 6.96875 -11.859375 C 6.96875 -9.679688 7.554688 -7.976562 8.734375 -6.75 C 9.921875 -5.53125 11.546875 -4.921875 13.609375 -4.921875 C 15.023438 -4.921875 16.21875 -5.28125 17.1875 -6 C 18.164062 -6.71875 18.882812 -7.75 19.34375 -9.09375 L 12.03125 -9.09375 L 12.03125 -13.34375 L 24.5625 -13.34375 L 24.5625 -7.984375 C 24.132812 -6.546875 23.410156 -5.207031 22.390625 -3.96875 C 21.367188 -2.738281 20.070312 -1.738281 18.5 -0.96875 C 16.925781 -0.207031 15.148438 0.171875 13.171875 0.171875 C 10.835938 0.171875 8.753906 -0.335938 6.921875 -1.359375 C 5.085938 -2.378906 3.660156 -3.800781 2.640625 -5.625 C 1.617188 -7.445312 1.109375 -9.523438 1.109375 -11.859375 C 1.109375 -14.191406 1.617188 -16.273438 2.640625 -18.109375 C 3.660156 -19.941406 5.082031 -21.367188 6.90625 -22.390625 C 8.726562 -23.410156 10.804688 -23.921875 13.140625 -23.921875 C 15.960938 -23.921875 18.34375 -23.234375 20.28125 -21.859375 C 22.226562 -20.492188 23.519531 -18.597656 24.15625 -16.171875 Z M 17.78125 -16.171875 "/></g></g></g><g fill="#191921" fill-opacity="1"><g transform="translate(131.770511, 49.148619)"><g><path d="M 22.375 -23.65625 L 14.1875 -7.8125 L 14.1875 0 L 8.421875 0 L 8.421875 -7.8125 L 0.234375 -23.65625 L 6.765625 -23.65625 L 11.359375 -13.75 L 15.90625 -23.65625 Z M 22.375 -23.65625 "/></g></g></g><g fill="#191921" fill-opacity="1"><g transform="translate(159.249851, 49.148619)"><g><path d="M 28.875 -23.65625 L 28.875 0 L 23.109375 0 L 23.109375 -14.1875 L 17.828125 0 L 13.171875 0 L 7.84375 -14.21875 L 7.84375 0 L 2.09375 0 L 2.09375 -23.65625 L 8.890625 -23.65625 L 15.53125 -7.28125 L 22.09375 -23.65625 Z M 28.875 -23.65625 "/></g></g></g><g fill="#191921" fill-opacity="1"><g transform="translate(121.367692, 126.01023)"><g><path d="M 6.984375 -13.515625 C 7.953125 -13.515625 8.78125 -13.335938 9.46875 -12.984375 C 10.15625 -12.628906 10.671875 -12.132812 11.015625 -11.5 C 11.367188 -10.863281 11.546875 -10.125 11.546875 -9.28125 C 11.546875 -8.425781 11.367188 -7.679688 11.015625 -7.046875 C 10.671875 -6.421875 10.15625 -5.929688 9.46875 -5.578125 C 8.78125 -5.222656 7.953125 -5.046875 6.984375 -5.046875 L 4.421875 -5.046875 L 4.421875 0 L 1.75 0 L 1.75 -13.515625 Z M 6.625 -7.15625 C 8.113281 -7.15625 8.859375 -7.863281 8.859375 -9.28125 C 8.859375 -10.695312 8.113281 -11.40625 6.625 -11.40625 L 4.421875 -11.40625 L 4.421875 -7.15625 Z M 6.625 -7.15625 "/></g></g></g><g fill="#191921" fill-opacity="1"><g transform="translate(133.722523, 126.01023)"><g/></g></g><g fill="#191921" fill-opacity="1"><g transform="translate(138.189134, 126.01023)"><g><path d="M 1.75 0 L 1.75 -13.515625 L 7.1875 -13.515625 C 8.582031 -13.515625 9.632812 -13.191406 10.34375 -12.546875 C 11.0625 -11.910156 11.421875 -11.023438 11.421875 -9.890625 C 11.421875 -9.066406 11.210938 -8.390625 10.796875 -7.859375 C 10.378906 -7.335938 9.757812 -6.941406 8.9375 -6.671875 L 8.9375 -6.46875 C 9.363281 -6.289062 9.707031 -6.019531 9.96875 -5.65625 C 10.226562 -5.289062 10.472656 -4.75 10.703125 -4.03125 L 12.0625 0 L 9.3125 0 L 7.984375 -4.046875 C 7.847656 -4.453125 7.695312 -4.765625 7.53125 -4.984375 C 7.363281 -5.210938 7.144531 -5.375 6.875 -5.46875 C 6.613281 -5.570312 6.273438 -5.625 5.859375 -5.625 L 4.421875 -5.625 L 4.421875 0 Z M 6.859375 -7.75 C 8.148438 -7.75 8.796875 -8.351562 8.796875 -9.5625 C 8.796875 -10.789062 8.148438 -11.40625 6.859375 -11.40625 L 4.421875 -11.40625 L 4.421875 -7.75 Z M 6.859375 -7.75 "/></g></g></g><g fill="#191921" fill-opacity="1"><g transform="translate(150.830649, 126.01023)"><g/></g></g><g fill="#191921" fill-opacity="1"><g transform="translate(155.29726, 126.01023)"><g><path d="M 7.375 0.1875 C 6.132812 0.1875 5.039062 -0.0625 4.09375 -0.5625 C 3.144531 -1.070312 2.398438 -1.84375 1.859375 -2.875 C 1.328125 -3.914062 1.0625 -5.210938 1.0625 -6.765625 C 1.0625 -8.304688 1.328125 -9.597656 1.859375 -10.640625 C 2.398438 -11.679688 3.144531 -12.453125 4.09375 -12.953125 C 5.039062 -13.460938 6.132812 -13.71875 7.375 -13.71875 C 8.613281 -13.71875 9.703125 -13.460938 10.640625 -12.953125 C 11.585938 -12.453125 12.328125 -11.679688 12.859375 -10.640625 C 13.390625 -9.597656 13.65625 -8.304688 13.65625 -6.765625 C 13.65625 -5.210938 13.390625 -3.914062 12.859375 -2.875 C 12.328125 -1.832031 11.585938 -1.0625 10.640625 -0.5625 C 9.703125 -0.0625 8.613281 0.1875 7.375 0.1875 Z M 7.375 -2.125 C 8.519531 -2.125 9.394531 -2.492188 10 -3.234375 C 10.601562 -3.972656 10.90625 -5.148438 10.90625 -6.765625 C 10.90625 -8.378906 10.601562 -9.554688 10 -10.296875 C 9.394531 -11.035156 8.519531 -11.40625 7.375 -11.40625 C 6.21875 -11.40625 5.332031 -11.035156 4.71875 -10.296875 C 4.113281 -9.554688 3.8125 -8.378906 3.8125 -6.765625 C 3.8125 -5.148438 4.113281 -3.972656 4.71875 -3.234375 C 5.332031 -2.492188 6.21875 -2.125 7.375 -2.125 Z M 7.375 -2.125 "/></g></g></g></svg>